STARTFONT 2.1
FONT -AK Design-Seymour-Medium-R-Normal-Sans-32-320-100-100-M-320-CDC6000-1
SIZE 32 100 100
FONTBOUNDINGBOX 32 34 -4 -6
STARTPROPERTIES 25
FONTNAME_REGISTRY ""
FOUNDRY "AK Design"
FAMILY_NAME "Seymour"
WEIGHT_NAME "Medium"
SLANT "R"
SETWIDTH_NAME "Normal"
ADD_STYLE_NAME "Sans"
PIXEL_SIZE 32
POINT_SIZE 320
RESOLUTION_X 100
RESOLUTION_Y 100
SPACING "M"
AVERAGE_WIDTH 320
CHARSET_REGISTRY "CDC6000"
CHARSET_ENCODING "1"
COPYRIGHT "Copyright Paul Koning, 2003."
FACE_NAME "Seymour"
X_HEIGHT 28
CAP_HEIGHT 28
WEIGHT 10
RESOLUTION 100
QUAD_WIDTH 32
FONT_ASCENT 28
FONT_DESCENT 4
_XMBDFED_INFO "Edited with xmbdfed 4.5."
ENDPROPERTIES
CHARS 48
STARTCHAR char0
ENCODING 0
SWIDTH 720 0
DWIDTH 32 0
BBX 32 32 0 0
BITMAP
00000000
00000000
00000000
00000000
00000000
00000000
00000000
00000000
00000000
00000000
00000000
00000000
00000000
00000000
00000000
00000000
00000000
00000000
00000000
00000000
00000000
00000000
00000000
00000000
00000000
00000000
00000000
00000000
00000000
00000000
00000000
00000000
ENDCHAR
STARTCHAR char1
ENCODING 1
SWIDTH 720 0
DWIDTH 32 0
BBX 32 32 0 0
BITMAP
00000000
00000000
00000000
00000000
00000000
00000000
0001C000
0001E000
0001E000
0001E000
0003E000
0003F000
00077000
00077000
00063800
000E3800
000E1C00
000C1C00
001FFE00
001FFE00
003E0F00
00380700
00700780
00700380
006003C0
006001C0
00000000
00000000
00000000
00000000
00000000
00000000
ENDCHAR
STARTCHAR char2
ENCODING 2
SWIDTH 720 0
DWIDTH 32 0
BBX 32 32 0 0
BITMAP
00000000
00000000
00000000
00000000
00000000
00000000
00780000
00FFFE00
00FFFF80
00E7FFC0
00E003C0
00E001E0
00E001E0
00E003C0
00E00780
00E03F00
00FFFE00
00FFF100
00E001C0
00E001C0
00E000E0
00E001C0
00E007C0
00FC3F00
00FFFE00
00FFF800
00738000
00000000
00000000
00000000
00000000
00000000
ENDCHAR
STARTCHAR char3
ENCODING 3
SWIDTH 720 0
DWIDTH 32 0
BBX 32 32 0 0
BITMAP
00000000
00000000
00000000
00000000
00000000
00000000
00000000
003FC000
007FF000
01F0FC00
01E03E00
03C00E00
03800000
03800000
03800000
03800000
03800000
03800000
03800000
03C00000
03C00380
01C00380
01E00780
00F80F00
007F3E00
001FFC00
000FF800
0000C000
00000000
00000000
00000000
00000000
ENDCHAR
STARTCHAR char4
ENCODING 4
SWIDTH 720 0
DWIDTH 32 0
BBX 32 32 0 0
BITMAP
00000000
00000000
00000000
00000000
00000000
00000000
00700000
00FFF800
00FFFF00
00FFFF80
00E007C0
00E001C0
00E001C0
00E001C0
00E001C0
00E001C0
00E001C0
00E001C0
00E001C0
00E001C0
00E001C0
00E003C0
00E00380
00E00780
00F03F00
00FFFC00
00FFF800
00FFE000
00000000
00000000
00000000
00000000
ENDCHAR
STARTCHAR char5
ENCODING 5
SWIDTH 720 0
DWIDTH 32 0
BBX 32 32 0 0
BITMAP
00000000
00000000
00000000
00000000
00000000
00000000
00000000
03F8FE00
03FFFF00
03FFFC00
03800000
03800000
03800000
03F80000
03FC0000
03800000
03800000
03800000
03800000
03800000
03800000
03800000
03800000
03800000
03800380
0383FFC0
03FFFFC0
037F8380
00000000
00000000
00000000
00000000
ENDCHAR
STARTCHAR char6
ENCODING 6
SWIDTH 720 0
DWIDTH 32 0
BBX 32 32 0 0
BITMAP
00000000
00000000
00000000
00000000
00000000
00000000
00FC03C0
00FFFFE0
00FFFFC0
00F1F000
00F00000
00F00000
00F00000
00F00000
00E00000
00F00000
00FF8000
00FF8000
00E00000
00E00000
00E00000
00E00000
00E00000
00E00000
00E00000
01C00000
01C00000
00000000
00000000
00000000
00000000
00000000
ENDCHAR
STARTCHAR char7
ENCODING 7
SWIDTH 720 0
DWIDTH 32 0
BBX 32 32 0 0
BITMAP
00000000
00000000
00000000
00000000
00000000
0001C000
000FF800
003FFE00
007FFF00
00F00FC0
01E007C0
01C003C0
01C00180
03C00000
03C00000
03C00380
03C07FC0
03807FC0
03803FC0
03800380
03800780
03C00780
03C00F00
03E01E00
01F03C00
007FF800
003FF000
001FC000
00000000
00000000
00000000
00000000
ENDCHAR
STARTCHAR char8
ENCODING 8
SWIDTH 720 0
DWIDTH 32 0
BBX 32 32 0 0
BITMAP
00000000
00000000
00000000
00000000
00000000
000000C0
000001E0
000001E0
00C001C0
01C001C0
01C001C0
01C001C0
01C001C0
01C001C0
01C001C0
01C001C0
01FFFFC0
01FFFFE0
01FFFFC0
01E001C0
01C000C0
01C001C0
01C000C0
01C000C0
01C000C0
01C000C0
01C00080
01800000
00000000
00000000
00000000
00000000
ENDCHAR
STARTCHAR char9
ENCODING 9
SWIDTH 720 0
DWIDTH 32 0
BBX 32 32 0 0
BITMAP
00000000
00000000
00000000
00000000
00000000
00000000
00000000
0001C000
0003C000
0003C000
0003C000
0003C000
0003C000
0003C000
0003C000
0003C000
0003C000
0001C000
0001C000
0001C000
0001C000
0001C000
0001C000
0001C000
0001C000
0001C000
00018000
00000000
00000000
00000000
00000000
00000000
ENDCHAR
STARTCHAR char10
ENCODING 10
SWIDTH 720 0
DWIDTH 32 0
BBX 32 32 0 0
BITMAP
00000000
00000000
00000000
00000000
00000000
00000000
00000000
00000700
00000700
00000700
00000700
00000380
00000380
00000380
00000380
00000380
00000380
00000380
00000380
01800380
01C00300
01F00700
00780700
003C0E00
001F0E00
0007FC00
0003F800
0000F000
00000000
00000000
00000000
00000000
ENDCHAR
STARTCHAR char11
ENCODING 11
SWIDTH 720 0
DWIDTH 32 0
BBX 32 32 0 0
BITMAP
00000000
00000000
00000000
00000000
00000000
00000000
00000300
01800F80
01C03F00
01C07C00
01C1F000
01C3C000
01C78000
01DF0000
01FC0000
01F80000
03F00000
03F80000
03FE0000
01FF8000
01C7E000
01C3F000
01C0FC00
01C07E00
01C03F80
01C007C0
018003C0
00000180
00000000
00000000
00000000
00000000
ENDCHAR
STARTCHAR char12
ENCODING 12
SWIDTH 720 0
DWIDTH 32 0
BBX 32 32 0 0
BITMAP
00000000
00000000
00000000
00000000
00000000
00600000
00600000
00600000
00600000
00600000
00600000
00600000
00600000
00600000
00600000
00600000
00600000
00600000
00E00000
00E00000
00E00000
00E00000
00E00000
00E00000
00F1FFC0
00FFFFC0
00FFFFC0
007E0000
00000000
00000000
00000000
00000000
ENDCHAR
STARTCHAR char13
ENCODING 13
SWIDTH 720 0
DWIDTH 32 0
BBX 32 32 0 0
BITMAP
00000000
00000000
00000000
00000000
00000000
00400000
01E00780
01E00780
01F00F80
01F80F80
01F81F80
01FC1F80
01DC3F80
01CE7780
01CFF780
01C7E780
01C3E780
01C3C780
01C3C780
01C00780
01C00780
01C00780
01C00780
01C00780
01C00780
01C00780
00800780
00000300
00000000
00000000
00000000
00000000
ENDCHAR
STARTCHAR char14
ENCODING 14
SWIDTH 720 0
DWIDTH 32 0
BBX 32 32 0 0
BITMAP
00000000
00000000
00000000
00000000
00000000
00000000
00600180
00F003C0
00F803C0
00F80380
00FC0380
00FC0380
00FE0380
00EF0380
00F78380
00F38380
00E1C380
00E1E380
00E0F380
00E07B80
00E07B80
00E03F80
00E01F80
00E00F80
00E00780
00E003C0
00C003C0
00000380
00000100
00000000
00000000
00000000
ENDCHAR
STARTCHAR char15
ENCODING 15
SWIDTH 720 0
DWIDTH 32 0
BBX 32 32 0 0
BITMAP
00000000
00000000
00000000
00000000
00000000
00000000
0001C000
0007E000
001FF000
001C3800
00383800
00701C00
00E01E00
00E00E00
00C00E00
01C00F00
01C00F00
01C00F00
01C00F00
01C00E00
01801E00
00C03C00
00C03800
00E0E000
00F3E000
007FC000
007F0000
001C0000
00000000
00000000
00000000
00000000
ENDCHAR
STARTCHAR char16
ENCODING 16
SWIDTH 720 0
DWIDTH 32 0
BBX 32 32 0 0
BITMAP
00000000
00000000
00000000
00000000
00000000
00000000
00000000
00F80000
00FFF800
00FFFF00
00E3FF80
00E003C0
00E001C0
00E003C0
00E00780
00F01F00
00FFFC00
00FFF000
00710000
00600000
00700000
00700000
00700000
00700000
00700000
00700000
00000000
00000000
00000000
00000000
00000000
00000000
ENDCHAR
STARTCHAR char17
ENCODING 17
SWIDTH 720 0
DWIDTH 32 0
BBX 32 32 0 0
BITMAP
00000000
00000000
00000000
00000000
00000000
00000000
00060000
000F8000
001FE000
003DF000
00707800
00601C00
00E01E00
01C00F00
01C00780
01C00380
03800380
03800380
03800380
01C02380
01E07380
00781F00
007C0F00
001E1F80
000FFF80
0007F3C0
0001C380
00000000
00000000
00000000
00000000
00000000
ENDCHAR
STARTCHAR char18
ENCODING 18
SWIDTH 720 0
DWIDTH 32 0
BBX 32 32 0 0
BITMAP
00000000
00000000
00000000
00000000
00000000
00000000
00000000
00700000
00FFF000
01FFFE00
00FFFF00
00E00FC0
00F003C0
00F001C0
00F001C0
00F007C0
00F00F80
00FFFE00
00FFF800
00FFFC00
00707E00
00701F80
007003E0
007001F0
007000F0
00700000
00700000
00200000
00000000
00000000
00000000
00000000
ENDCHAR
STARTCHAR char19
ENCODING 19
SWIDTH 720 0
DWIDTH 32 0
BBX 32 32 0 0
BITMAP
00000000
00000000
00000000
00000000
00000000
00000000
00000000
00018000
001FF000
007FF800
01FCFE00
03E01F00
07800F00
07000700
07800000
07C00000
03E00000
01FFE000
007FF800
0000FC00
00003F00
00000F00
00000780
03800700
03F00F00
00FE3E00
003FFC00
000FF000
00000000
00000000
00000000
00000000
ENDCHAR
STARTCHAR char20
ENCODING 20
SWIDTH 720 0
DWIDTH 32 0
BBX 32 32 0 0
BITMAP
00000000
00000000
00000000
00000000
00000000
00000000
00000000
00FFC000
00FFFFC0
00FFFF80
00F1E000
0000E000
0000E000
0000E000
0000E000
0000E000
0000E000
0000E000
0000E000
0000E000
0000E000
0000E000
00006000
00006000
00006000
00006000
00006000
00006000
00000000
00000000
00000000
00000000
ENDCHAR
STARTCHAR char21
ENCODING 21
SWIDTH 720 0
DWIDTH 32 0
BBX 32 32 0 0
BITMAP
00000000
00000000
00000000
00000000
00000000
00000000
00000380
01C00780
01C00780
01C00780
01C00780
01C00780
01C00380
01C00380
01C00380
01C00380
01C00380
01C00380
01C00380
01C00380
01C00380
01E00380
01E00380
00F00780
00F00700
007E0700
003FFF00
001FFE00
0001F800
00000000
00000000
00000000
ENDCHAR
STARTCHAR char22
ENCODING 22
SWIDTH 720 0
DWIDTH 32 0
BBX 32 32 0 0
BITMAP
00000000
00000000
00000000
00000000
00000000
00000000
000001C0
00C003E0
00E003C0
00E003C0
00600380
00700780
00300700
00380700
00380E00
001C0E00
001C0E00
001E1C00
000E1C00
000F1C00
000F1800
00073800
0003B800
0003F800
0001F800
0001F000
0001F000
0001E000
0000C000
00000000
00000000
00000000
ENDCHAR
STARTCHAR char23
ENCODING 23
SWIDTH 720 0
DWIDTH 32 0
BBX 32 32 0 0
BITMAP
00000000
00000000
00000000
00000000
00000000
00000000
00C001C0
00C001E0
00C001C0
00C001C0
00C001C0
00C001C0
00C001C0
01C001C0
01C001C0
01C0C1C0
01C1E1C0
01C1E1C0
01C3F1C0
01C3F9C0
01C379C0
01C73DC0
01CE1FC0
01CE0FC0
01FC07C0
01FC07C0
01F803E0
01F001C0
00C00080
00000000
00000000
00000000
ENDCHAR
STARTCHAR char24
ENCODING 24
SWIDTH 720 0
DWIDTH 32 0
BBX 32 32 0 0
BITMAP
00000000
00000000
00000000
00000000
00000000
00000000
00700000
00F00040
00F800E0
007801C0
003C03C0
001E0780
000F0700
00070E00
00079C00
0003B800
0001F800
0000F000
0000E000
0001F000
0001F800
0003B800
00071C00
000E0E00
001C0E00
00380700
007003C0
000001C0
00000000
00000000
00000000
00000000
ENDCHAR
STARTCHAR char25
ENCODING 25
SWIDTH 720 0
DWIDTH 32 0
BBX 32 32 0 0
BITMAP
00000000
00000000
00000000
00000000
00000000
00000000
00000000
00E000C0
01F001C0
00F00380
00780700
007C0E00
003C0E00
001E1C00
000F3800
00077000
0007F000
0003F000
0001E000
0001E000
0001E000
0001E000
0001E000
0001E000
0001C000
0001C000
0001C000
0001C000
00000000
00000000
00000000
00000000
ENDCHAR
STARTCHAR char26
ENCODING 26
SWIDTH 720 0
DWIDTH 32 0
BBX 32 32 0 0
BITMAP
00000000
00000000
00000000
00000000
00000000
00000000
00003FC0
007FFFC0
00FFFFC0
007FCF80
00000E00
00001C00
00003800
00007000
0000F000
0001E000
0001C000
00038000
00070000
000F0000
001E0000
003C0000
00780000
00700000
00E07FE0
01FFFFE0
01FFFFC0
00FFC000
00000000
00000000
00000000
00000000
ENDCHAR
STARTCHAR char27
ENCODING 27
SWIDTH 720 0
DWIDTH 32 0
BBX 32 32 0 0
BITMAP
00000000
00000000
00000000
00000000
00000000
00000000
000FF000
003FFF00
003FFF80
00781FC0
007003C0
007001C0
00E001C0
00E001C0
00E001C0
00E001C0
00E001C0
00E001C0
00E001C0
00E003C0
00E003C0
00E00380
00F00380
00F00780
00FC0F00
007FFF00
003FFC00
0007F800
00000000
00000000
00000000
00000000
ENDCHAR
STARTCHAR char28
ENCODING 28
SWIDTH 720 0
DWIDTH 32 0
BBX 32 32 0 0
BITMAP
00000000
00000000
00000000
00000000
00000000
00000000
00000000
0000F000
0001F000
0003E000
0007E000
001FE000
001EE000
001CE000
0000E000
0000E000
0000E000
0000E000
0000E000
0000E000
0000E000
0000E000
0000E000
0000E000
0000E000
0000E000
0000C000
00004000
00000000
00000000
00000000
00000000
ENDCHAR
STARTCHAR char29
ENCODING 29
SWIDTH 720 0
DWIDTH 32 0
BBX 32 32 0 0
BITMAP
00000000
00000000
00000000
00000000
00000000
00000000
0000F000
0007FC00
000FFF00
001E0F00
00780780
00E00380
00000380
00000780
00001F00
00003E00
0000F800
0003E000
00078000
000F0000
003C0000
00380000
00F00000
00E1FF80
01FFFF80
01FFFF80
01FC0000
00000000
00000000
00000000
00000000
00000000
ENDCHAR
STARTCHAR char30
ENCODING 30
SWIDTH 720 0
DWIDTH 32 0
BBX 32 32 0 0
BITMAP
00000000
00000000
00000000
00000000
00000000
00000000
00000000
007FFFC0
00FFFFC0
00FFFF80
00001E00
00007C00
0001F000
000FF000
001FF800
001FFC00
00001E00
00000F00
00000700
00000700
00000700
00000700
00000700
00F80F00
007E1E00
001FFC00
0007F000
00008000
00000000
00000000
00000000
00000000
ENDCHAR
STARTCHAR char31
ENCODING 31
SWIDTH 720 0
DWIDTH 32 0
BBX 32 32 0 0
BITMAP
00000000
00000000
00000000
00000000
00000000
00000000
00000000
0000E000
0001E000
0003E000
0003E000
0003E000
0007E000
000EE000
001CE000
003DE000
0039E000
0071C000
00E7FE00
01FFFF00
03FFFE00
03E1C000
0101C000
0001C000
0001C000
00018000
00000000
00000000
00000000
00000000
00000000
00000000
ENDCHAR
STARTCHAR char32
ENCODING 32
SWIDTH 720 0
DWIDTH 32 0
BBX 32 32 0 0
BITMAP
00000000
00000000
00000000
00000000
00000000
00000000
00000000
00000000
01F80700
03FFFF80
03FFFF00
03C00600
01C00000
03C00000
03FFF000
03FFFC00
01F07C00
00001F00
00000780
00000380
00000380
000003C0
000003C0
00F00380
007C0780
000FFF00
0003FC00
00000000
00000000
00000000
00000000
00000000
ENDCHAR
STARTCHAR char33
ENCODING 33
SWIDTH 720 0
DWIDTH 32 0
BBX 32 32 0 0
BITMAP
00000000
00000000
00000000
00000000
00000000
00000000
00000000
0007F800
001FFE00
003E3F80
00780FC0
007003E0
00E031C0
00E3FC00
00EFFF00
00FF0F80
00FC0780
00E001C0
00E001C0
00E001C0
00E001C0
00F001C0
00780380
003C1F00
001FFE00
000FF800
0003E000
00000000
00000000
00000000
00000000
00000000
ENDCHAR
STARTCHAR char34
ENCODING 34
SWIDTH 720 0
DWIDTH 32 0
BBX 32 32 0 0
BITMAP
00000000
00000000
00000000
00000000
00000000
00000000
00000000
000003C0
00FFFFC0
00FFFFC0
003FFF80
00000700
00000E00
00001C00
00003800
00003800
00007000
0000E000
0001E000
0001C000
0001C000
00018000
00038000
00038000
00070000
00070000
00030000
00000000
00000000
00000000
00000000
00000000
ENDCHAR
STARTCHAR char35
ENCODING 35
SWIDTH 720 0
DWIDTH 32 0
BBX 32 32 0 0
BITMAP
00000000
00000000
00000000
00000000
00000000
00000000
00000000
003FC000
007FF000
01FFFC00
03C03F00
03800F80
07800780
07800780
03E00F00
01FCFF00
003FFC00
003FFE00
007FFF80
00F00F80
01C00380
03C00380
03F00F80
01F83F00
007FFC00
003FF800
0007C000
00000000
00000000
00000000
00000000
00000000
ENDCHAR
STARTCHAR char36
ENCODING 36
SWIDTH 720 0
DWIDTH 32 0
BBX 32 32 0 0
BITMAP
00000000
00000000
00000000
00000000
00000000
00000000
00000000
000FF000
003FF800
007FFE00
00F01F00
01C00780
01C00780
03C00380
03C00380
03C003C0
01C003C0
01E007C0
00F80FC0
007F7FC0
003FFDC0
000FF1C0
00C003C0
00F807C0
007F0F80
001FFF00
0007FC00
00000000
00000000
00000000
00000000
00000000
ENDCHAR
STARTCHAR char37
ENCODING 37
SWIDTH 720 0
DWIDTH 32 0
BBX 32 32 0 0
BITMAP
00000000
00000000
00000000
00000000
00000000
00000000
00000000
00000000
0000E000
0000E000
0000E000
0000E000
0000E000
0000E000
0000E000
0000E000
00FFFF80
00FFFFC0
00FFE000
0000E000
0000E000
0000E000
0000E000
0000E000
0000E000
0000E000
0000C000
00000000
00000000
00000000
00000000
00000000
ENDCHAR
STARTCHAR char38
ENCODING 38
SWIDTH 720 0
DWIDTH 32 0
BBX 32 32 0 0
BITMAP
00000000
00000000
00000000
00000000
00000000
00000000
00000000
00000000
00000000
00000000
00000000
00000000
00000000
00000000
00000000
00FFFF80
01FFFF80
01FFFF80
00000000
00000000
00000000
00000000
00000000
00000000
00000000
00000000
00000000
00000000
00000000
00000000
00000000
00000000
ENDCHAR
STARTCHAR char39
ENCODING 39
SWIDTH 720 0
DWIDTH 32 0
BBX 32 32 0 0
BITMAP
00000000
00000000
00000000
00000000
00000000
00000000
00000000
00000000
00000000
00000200
00060600
00070E00
00031C00
00019C00
0018F800
003FF800
003FFC00
0030FC00
00019C00
00038E00
00070700
000E0780
000C0780
00000700
00000000
00000000
00000000
00000000
00000000
00000000
00000000
00000000
ENDCHAR
STARTCHAR char40
ENCODING 40
SWIDTH 720 0
DWIDTH 32 0
BBX 32 32 0 0
BITMAP
00000000
00000000
00000000
00000000
00000000
00000180
000003C0
000003C0
00000780
00000700
00000E00
00001C00
00003800
00007000
00007000
0000E000
0001C000
00038000
00030000
00070000
000E0000
001C0000
00380000
00700000
00E00000
01C00000
00000000
00000000
00000000
00000000
00000000
00000000
ENDCHAR
STARTCHAR char41
ENCODING 41
SWIDTH 720 0
DWIDTH 32 0
BBX 32 32 0 0
BITMAP
00000000
00000000
00000000
00000000
00000000
00000000
0000E000
0000F000
0001F000
0001E000
0001C000
00038000
00038000
00038000
00038000
00038000
00038000
00030000
00030000
00030000
00030000
00030000
00038000
00038000
0003C000
0001C000
00008000
00000000
00000000
00000000
00000000
00000000
ENDCHAR
STARTCHAR char42
ENCODING 42
SWIDTH 720 0
DWIDTH 32 0
BBX 32 32 0 0
BITMAP
00000000
00000000
00000000
00000000
00000000
00000000
0001C000
0001C000
0001E000
0001E000
0000E000
0000F000
00007000
00007000
00006000
00006000
00006000
00006000
00006000
00006000
00006000
0000E000
0000E000
0001C000
00038000
00030000
00000000
00000000
00000000
00000000
00000000
00000000
ENDCHAR
STARTCHAR char43
ENCODING 43
SWIDTH 720 0
DWIDTH 32 0
BBX 32 32 0 0
BITMAP
00000000
00000000
00000000
00000000
00000000
00000000
00000000
00000000
00000000
00000000
00000000
00000000
00000000
00000000
00000000
00000000
00000000
00000000
00000000
00000000
00000000
00000000
00000000
00000000
00000000
00000000
00000000
00000000
00000000
00000000
00000000
00000000
ENDCHAR
STARTCHAR char44
ENCODING 44
SWIDTH 720 0
DWIDTH 32 0
BBX 32 32 0 0
BITMAP
00000000
00000000
00000000
00000000
00000000
00000000
00000000
00000000
00000000
00000000
00000000
00000000
00000000
007FFF80
007FFF80
007FE000
00000000
00000000
00000000
0001FF80
007FFF80
007FFF00
00000000
00000000
00000000
00000000
00000000
00000000
00000000
00000000
00000000
00000000
ENDCHAR
STARTCHAR char45
ENCODING 45
SWIDTH 720 0
DWIDTH 32 0
BBX 32 32 0 0
BITMAP
00000000
00000000
00000000
00000000
00000000
00000000
00000000
00000000
00000000
00000000
00000000
00000000
00000000
00000000
00000000
00000000
00000000
00000000
00000000
00000000
00000000
00000000
00000000
00000000
00000000
00000000
00000000
00000000
00000000
00000000
00000000
00000000
ENDCHAR
STARTCHAR char46
ENCODING 46
SWIDTH 720 0
DWIDTH 32 0
BBX 32 32 0 0
BITMAP
00000000
00000000
00000000
00000000
00000000
00000000
00000000
00000000
00000000
00000000
00000000
00000000
00000000
00000000
00000000
00000000
00000000
00000000
00000000
00000000
00000000
001C0000
001E0000
003C0000
00780000
00600000
00000000
00000000
00000000
00000000
00000000
00000000
ENDCHAR
STARTCHAR char47
ENCODING 47
SWIDTH 720 0
DWIDTH 32 0
BBX 32 32 0 0
BITMAP
00000000
00000000
00000000
00000000
00000000
00000000
00000000
00000000
00000000
00000000
00000000
00000000
00000000
00000000
00000000
00000000
00000000
00000000
00000000
00000000
00000000
00000000
00380000
00380000
00100000
00000000
00000000
00000000
00000000
00000000
00000000
00000000
ENDCHAR
ENDFONT
